<svg width="189" height="62" viewBox="0 0 189 62" fill="none" xmlns="http://www.w3.org/2000/svg">
<g clip-path="url(#clip0_1240_960)">
<path d="M29.989 0C22.0026 0.0956522 14.3758 3.35124 8.76199 9.06087C3.14821 14.7705 0 22.4739 0 30.501C0 38.5278 3.14821 46.2314 8.76199 51.9409C14.3758 57.6505 22.0026 60.9062 29.989 61.0018H60.3396V30.5031C60.3396 22.4131 57.1419 14.6546 51.4501 8.93414C45.7583 3.21371 38.0384 0 29.989 0ZM54.3143 54.9116H48.2459V39.66C48.245 37.8509 47.7105 36.0826 46.7097 34.5787C45.709 33.0748 44.2871 31.9029 42.6238 31.2111C40.9604 30.5195 39.1303 30.3389 37.3648 30.6924C35.5994 31.0458 33.9778 31.9175 32.7052 33.197C31.4327 34.4767 30.5662 36.1068 30.2153 37.8813C29.8644 39.6557 30.0449 41.4949 30.734 43.1663C31.4231 44.8377 32.5897 46.2661 34.0866 47.2712C35.5834 48.2762 37.3432 48.8127 39.1433 48.8127H42.1603V54.9116H39.1433C36.1417 54.9125 33.2073 54.0187 30.7111 52.3433C28.215 50.6681 26.2693 48.2863 25.1201 45.4996C23.9708 42.7127 23.6697 39.6461 24.2546 36.6873C24.8398 33.7284 26.2847 31.0105 28.4069 28.877C30.529 26.7438 33.2329 25.2907 36.1769 24.7018C39.1207 24.113 42.1721 24.4148 44.9453 25.569C47.7185 26.7233 50.0888 28.6781 51.7564 31.1863C53.4242 33.6946 54.3143 36.6434 54.3143 39.66V54.9116Z" fill="#0F0E0F"/>
<path d="M80.8584 18.9203H76.3588C75.8799 18.9207 75.4116 19.0608 75.0107 19.3238C74.6097 19.5869 74.2934 19.9614 74.1004 20.4018L66.5709 37.5159C66.4101 37.8932 66.3447 38.3047 66.3807 38.7135C66.4165 39.1224 66.5526 39.5159 66.7767 39.859C67.0007 40.2022 67.3059 40.4842 67.6648 40.68C68.0236 40.8759 68.4253 40.9793 68.8336 40.9811H71.3721L77.7553 25.028L84.1167 41.0029H90.5817L80.8584 18.9203Z" fill="#0F0E0F"/>
<path d="M104.849 36.0562V18.9203H101.095C100.44 18.9203 99.8116 19.1818 99.3484 19.6474C98.8852 20.1127 98.625 20.7442 98.625 21.4024V38.5208C98.625 38.8468 98.6889 39.1696 98.8131 39.4707C98.9372 39.7717 99.119 40.0453 99.3484 40.2759C99.5778 40.5064 99.85 40.6892 100.15 40.8138C100.449 40.9387 100.77 41.0029 101.095 41.0029H115.317V36.0562H104.849Z" fill="#0F0E0F"/>
<path d="M124.053 21.4024V38.5208C124.054 39.1787 124.314 39.8094 124.777 40.2746C125.24 40.7398 125.868 41.0018 126.522 41.0028H130.259V18.9117H126.522C126.197 18.9124 125.876 18.9772 125.576 19.1026C125.276 19.2281 125.004 19.4117 124.774 19.643C124.545 19.8744 124.363 20.1487 124.239 20.4506C124.116 20.7524 124.052 21.0759 124.053 21.4024Z" fill="#0F0E0F"/>
<path d="M138.893 21.4024C138.893 22.0606 139.153 22.6919 139.616 23.1574C140.079 23.6228 140.707 23.8843 141.362 23.8843H145.651V38.5208C145.652 39.1788 145.912 39.8094 146.375 40.2746C146.838 40.7399 147.466 41.0016 148.12 41.0029H151.857V23.8843H158.58V18.9203H141.362C140.708 18.9216 140.08 19.1834 139.617 19.6486C139.154 20.1138 138.894 20.7445 138.893 21.4024Z" fill="#0F0E0F"/>
<path d="M179.269 18.9205H174.748C174.266 18.9174 173.794 19.0559 173.39 19.3192C172.984 19.5824 172.666 19.9587 172.472 20.4018L164.976 37.5202C164.816 37.8975 164.751 38.3089 164.787 38.7178C164.822 39.1266 164.958 39.5202 165.182 39.8633C165.406 40.2064 165.712 40.4886 166.071 40.6844C166.43 40.8801 166.831 40.9837 167.24 40.9855H169.782L176.165 25.0322L177.79 29.0996L178.984 32.0927L182.535 40.9855H189.001L179.269 18.9205Z" fill="#0F0E0F"/>
<path d="M67.041 60.6813V48.514H68.1703V60.6943L67.041 60.6813Z" fill="#0F0E0F"/>
<path d="M78.1872 50.0559H78.157V60.6813H77.0234V48.514H78.2733L85.0658 59.1567H85.096V48.514H86.2296V60.6943H84.9364L78.1872 50.0559Z" fill="#0F0E0F"/>
<path d="M94.8242 60.6813V48.514H102.418V49.4885H95.9535V53.9024H101.824V54.877H95.9578V60.6943L94.8242 60.6813Z" fill="#0F0E0F"/>
<path d="M109.568 54.6127C109.505 52.9772 110.001 51.3691 110.973 50.056C111.898 48.8257 113.236 48.2006 114.985 48.1804C116.847 48.2035 118.239 48.8228 119.162 50.0386C120.058 51.3796 120.536 52.9583 120.536 54.5738C120.536 56.1892 120.058 57.7679 119.162 59.1089C118.239 60.3478 116.866 60.9788 115.042 61.0018C113.236 60.9802 111.869 60.3478 110.956 59.1133C110.005 57.8114 109.516 56.2267 109.568 54.6127ZM115.063 60.0272C116.58 60.0056 117.683 59.4598 118.377 58.3812C119.084 57.2552 119.441 55.9435 119.403 54.6127C119.351 51.0435 117.895 49.2243 115.033 49.1549C113.542 49.181 112.447 49.7311 111.753 50.7966C111.029 51.934 110.662 53.2632 110.697 54.6127C110.694 55.3044 110.782 55.9934 110.96 56.6616C111.103 57.2855 111.368 57.8747 111.74 58.3943C112.434 59.4598 113.542 60.0056 115.063 60.0272Z" fill="#0F0E0F"/>
<path d="M127.785 48.514H136.353V49.4885H132.634V60.6943H131.5V49.4755H127.785V48.514Z" fill="#0F0E0F"/>
<path d="M143.932 60.6813V48.514H151.784V49.4885H145.065V53.9024H151.099V54.877H145.065V59.7198H151.931V60.6943L143.932 60.6813Z" fill="#0F0E0F"/>
<path d="M168.296 52.0398C167.838 50.082 166.602 49.1204 164.589 49.155C163.176 49.1811 162.15 49.7181 161.502 50.7664C160.812 51.9128 160.475 53.2393 160.533 54.5782C160.528 55.2437 160.599 55.9077 160.74 56.5577C160.87 57.1773 161.1 57.7715 161.422 58.3164C162.033 59.4454 163.124 60.023 164.693 60.0489C165.147 60.0629 165.598 59.9844 166.022 59.8184C166.444 59.6525 166.829 59.4023 167.153 59.0831C167.8 58.4338 168.239 57.6036 168.412 56.7006H169.567C169.364 57.8443 168.826 58.9005 168.02 59.7328C167.223 60.599 166.037 61.0322 164.468 61.0322C162.667 60.9976 161.374 60.3536 160.589 59.1004C159.743 57.7496 159.327 56.1724 159.396 54.5782C159.396 52.2681 159.92 50.6147 160.969 49.6186C161.489 49.1259 162.103 48.7437 162.774 48.4945C163.446 48.2451 164.159 48.1339 164.874 48.1675C167.41 48.1675 168.933 49.4539 169.442 52.027L168.296 52.0398Z" fill="#0F0E0F"/>
<path d="M177.803 60.6813V48.514H178.935V53.7465H185.861V48.514H186.995V60.6943H185.861V54.7167H178.935V60.6943L177.803 60.6813Z" fill="#0F0E0F"/>
</g>
<defs>
<clipPath id="clip0_1240_960">
<rect width="189" height="61.274" fill="white"/>
</clipPath>
</defs>
</svg>
