<svg width="1518" height="475" viewBox="0 0 1518 475" fill="none" xmlns="http://www.w3.org/2000/svg">
<path d="M240.837 0C176.7 0.744367 115.45 26.0794 70.3662 70.5119C25.2828 114.944 0 174.892 0 237.359C0 299.824 25.2828 359.773 70.3662 404.205C115.45 448.638 176.7 473.973 240.837 474.717H484.578V237.376C484.578 174.419 458.897 114.042 413.188 69.5257C367.478 25.0092 305.48 0 240.837 0ZM436.19 427.323H387.455V308.635C387.448 294.557 383.155 280.795 375.118 269.092C367.082 257.389 355.663 248.269 342.305 242.886C328.947 237.503 314.249 236.098 300.071 238.849C285.893 241.599 272.87 248.382 262.651 258.34C252.431 268.299 245.472 280.984 242.654 294.793C239.837 308.602 241.286 322.914 246.82 335.921C252.354 348.928 261.723 360.044 273.744 367.865C285.764 375.687 299.897 379.861 314.354 379.861H338.582V427.323H314.354C290.248 427.33 266.683 420.374 246.636 407.337C226.59 394.3 210.965 375.765 201.735 354.079C192.506 332.391 190.087 308.527 194.785 285.502C199.484 262.475 211.088 241.324 228.131 224.722C245.174 208.121 266.888 196.813 290.531 192.23C314.172 187.648 338.678 189.996 360.948 198.979C383.22 207.961 402.255 223.173 415.648 242.692C429.041 262.212 436.19 285.159 436.19 308.635V427.323Z" fill="white"/>
<path d="M649.4 147.211H613.265C609.419 147.213 605.657 148.304 602.438 150.351C599.217 152.398 596.678 155.312 595.128 158.74L534.659 291.922C533.368 294.858 532.843 298.06 533.132 301.242C533.419 304.424 534.513 307.486 536.312 310.156C538.111 312.827 540.562 315.021 543.445 316.545C546.326 318.069 549.551 318.874 552.831 318.888H573.217L624.479 194.741L675.567 319.058H727.486L649.4 147.211Z" fill="white"/>
<path d="M841.988 280.563V147.211H811.841C806.581 147.211 801.537 149.246 797.817 152.869C794.097 156.49 792.008 161.404 792.008 166.526V299.742C792.008 302.279 792.521 304.791 793.518 307.134C794.515 309.477 795.975 311.606 797.817 313.4C799.659 315.194 801.846 316.616 804.252 317.587C806.657 318.558 809.236 319.058 811.841 319.058H926.063V280.563H841.988Z" fill="white"/>
<path d="M996.231 166.558V299.774C996.239 304.894 998.332 309.802 1002.05 313.422C1005.77 317.042 1010.81 319.081 1016.06 319.089H1046.07V147.176H1016.06C1013.45 147.181 1010.87 147.685 1008.46 148.661C1006.05 149.637 1003.87 151.067 1002.03 152.867C1000.18 154.667 998.724 156.802 997.73 159.151C996.735 161.5 996.226 164.018 996.231 166.558Z" fill="white"/>
<path d="M1115.42 166.526C1115.42 171.649 1117.51 176.561 1121.23 180.184C1124.95 183.806 1130 185.841 1135.26 185.841H1169.69V299.742C1169.7 304.862 1171.8 309.77 1175.51 313.39C1179.23 317.011 1184.27 319.048 1189.53 319.058H1219.54V185.841H1273.53V147.211H1135.26C1130 147.22 1124.96 149.258 1121.24 152.878C1117.52 156.498 1115.43 161.406 1115.42 166.526Z" fill="white"/>
<path d="M1439.68 147.211H1403.37C1399.5 147.187 1395.71 148.265 1392.47 150.314C1389.21 152.362 1386.65 155.291 1385.1 158.739L1324.9 291.955C1323.61 294.891 1323.09 298.093 1323.38 301.274C1323.66 304.456 1324.75 307.519 1326.55 310.189C1328.35 312.859 1330.81 315.055 1333.69 316.579C1336.58 318.102 1339.79 318.908 1343.08 318.922H1363.49L1414.76 194.773L1427.8 226.426L1437.39 249.718L1465.91 318.922H1517.83L1439.68 147.211Z" fill="white"/>
<path d="M538.484 472.222V377.535H547.553V472.323L538.484 472.222Z" fill="white"/>
<path d="M627.982 389.535H627.74V472.222H618.637V377.535H628.674L683.224 460.357H683.466V377.535H692.57V472.323H682.185L627.982 389.535Z" fill="white"/>
<path d="M761.562 472.222V377.535H822.55V385.119H770.632V419.468H817.774V427.052H770.666V472.323L761.562 472.222Z" fill="white"/>
<path d="M879.937 424.947C879.432 412.219 883.414 399.704 891.221 389.486C898.651 379.912 909.393 375.047 923.445 374.89C938.398 375.07 949.578 379.889 956.984 389.351C964.181 399.786 968.024 412.072 968.024 424.644C968.024 437.214 964.181 449.5 956.984 459.936C949.578 469.577 938.548 474.487 923.896 474.666C909.393 474.498 898.421 469.577 891.082 459.97C883.449 449.839 879.525 437.506 879.937 424.947ZM924.068 467.082C936.253 466.914 945.112 462.667 950.685 454.273C956.36 445.51 959.227 435.302 958.923 424.947C958.508 397.171 946.809 383.014 923.826 382.474C911.85 382.676 903.059 386.957 897.485 395.249C891.675 404.101 888.721 414.444 889.006 424.947C888.981 430.329 889.691 435.691 891.118 440.891C892.262 445.746 894.393 450.331 897.383 454.375C902.955 462.667 911.85 466.914 924.068 467.082Z" fill="white"/>
<path d="M1026.23 377.535H1095.04V385.119H1065.17V472.323H1056.07V385.018H1026.23V377.535Z" fill="white"/>
<path d="M1155.88 472.222V377.535H1218.94V385.119H1164.98V419.468H1213.44V427.052H1164.98V464.739H1220.12V472.323L1155.88 472.222Z" fill="white"/>
<path d="M1351.59 405.021C1347.92 389.785 1337.99 382.302 1321.82 382.572C1310.48 382.774 1302.24 386.954 1297.04 395.111C1291.49 404.033 1288.79 414.355 1289.25 424.775C1289.22 429.954 1289.78 435.121 1290.92 440.179C1291.96 445.001 1293.81 449.625 1296.39 453.866C1301.3 462.651 1310.06 467.147 1322.66 467.348C1326.3 467.457 1329.93 466.846 1333.33 465.554C1336.72 464.263 1339.82 462.316 1342.41 459.832C1347.62 454.779 1351.14 448.319 1352.52 441.292H1361.8C1360.17 450.192 1355.85 458.411 1349.38 464.888C1342.98 471.629 1333.45 475 1320.86 475C1306.39 474.731 1296.01 469.719 1289.71 459.967C1282.91 449.455 1279.57 437.181 1280.12 424.775C1280.12 406.797 1284.33 393.931 1292.75 386.179C1296.93 382.345 1301.86 379.371 1307.25 377.431C1312.64 375.491 1318.37 374.625 1324.11 374.886C1344.48 374.886 1356.71 384.897 1360.8 404.921L1351.59 405.021Z" fill="white"/>
<path d="M1427.9 472.222V377.535H1436.99V418.254H1492.61V377.535H1501.72V472.323H1492.61V425.805H1436.99V472.323L1427.9 472.222Z" fill="white"/>
</svg>
