<svg width="50" height="50" viewBox="0 0 50 50" fill="none" xmlns="http://www.w3.org/2000/svg">
<path d="M24.8501 0C18.2323 0.0784012 11.9124 2.74684 7.26057 7.42673C2.60874 12.1066 0 18.4207 0 25.0001C0 31.5793 2.60874 37.8935 7.26057 42.5733C11.9124 47.2532 18.2323 49.9217 24.8501 50H50V25.0018C50 18.3709 47.3502 12.0116 42.6337 7.32286C37.9173 2.63411 31.5202 0 24.8501 0ZM45.0072 45.0082H39.9786V32.5073C39.9779 31.0245 39.5349 29.575 38.7056 28.3424C37.8765 27.1097 36.6982 26.1492 35.3199 25.5821C33.9416 25.0153 32.4251 24.8672 30.9621 25.157C29.4992 25.4467 28.1554 26.1611 27.101 27.2099C26.0465 28.2588 25.3284 29.5948 25.0377 31.0493C24.747 32.5038 24.8965 34.0112 25.4675 35.3812C26.0385 36.7511 27.0052 37.922 28.2456 38.7458C29.4859 39.5695 30.9442 40.0092 32.4358 40.0092H34.9358V45.0082H32.4358C29.9485 45.009 27.517 44.2763 25.4486 42.9031C23.3801 41.53 21.7679 39.5778 20.8156 37.2937C19.8633 35.0094 19.6137 32.4959 20.0984 30.0707C20.5833 27.6454 21.7806 25.4177 23.5391 23.669C25.2976 21.9205 27.5382 20.7295 29.9777 20.2468C32.4171 19.7642 34.9457 20.0115 37.2436 20.9576C39.5416 21.9037 41.5057 23.5059 42.8876 25.5618C44.2696 27.6177 45.0072 30.0347 45.0072 32.5073V45.0082Z" fill="#171617"/>
</svg>
